<svg width="18" height="18" viewBox="0 0 18 18" fill="none" xmlns="http://www.w3.org/2000/svg">
<g clip-path="url(#clip0_21_650)">
<path fill-rule="evenodd" clip-rule="evenodd" d="M3.96438 15.4599C3.95949 15.4599 3.95608 15.4551 3.9577 15.4505L8.55318 2.4654C8.5542 2.46258 8.55687 2.46069 8.55986 2.46069H13.4657C13.4686 2.46069 13.4714 2.4626 13.4723 2.46544L17.9996 15.4505C18.0012 15.4551 17.9978 15.4599 17.993 15.4599H4.10248H3.96438ZM0.0070772 15.5107C0.00214146 15.5107 -0.00127566 15.5058 0.000455653 15.5012L3.42257 6.36503C3.42361 6.36225 3.42624 6.36042 3.42919 6.36042H6.40262C6.40754 6.36042 6.41095 6.36531 6.40927 6.36991L3.10018 15.5061C3.09916 15.5089 3.09651 15.5107 3.09353 15.5107H0.0070772Z" fill="white"/>
</g>
<defs>
<clipPath id="clip0_21_650">
<rect width="18.0001" height="18.0001" fill="white"/>
</clipPath>
</defs>
</svg>
