<svg width="18" height="18" viewBox="0 0 18 18" fill="none" xmlns="http://www.w3.org/2000/svg">
<path fill-rule="evenodd" clip-rule="evenodd" d="M12.0305 0.0178673C12.0436 -0.000825912 12.0693 -0.00536887 12.088 0.0077203L13.3661 0.902647C13.3848 0.915735 13.3893 0.941498 13.3762 0.960191L11.5974 3.50068C12.4622 3.77696 13.0514 4.07498 13.0514 4.07498C13.0514 4.07498 11.6112 6.55217 9.16858 6.55217C6.72595 6.55217 4.99024 4.24338 4.99024 4.24338C4.99024 4.24338 5.60569 3.85061 6.518 3.51375L4.56681 1.18845C4.55215 1.17096 4.55444 1.1449 4.57191 1.13024L5.76713 0.127322C5.78463 0.112654 5.81068 0.114934 5.82535 0.132415L8.29586 3.07666C8.5074 3.05273 8.7229 3.03936 8.94038 3.03936C9.25296 3.03936 9.56515 3.06312 9.86992 3.10344L12.0305 0.0178673ZM12.5137 6.66949C13.1656 6.20395 14.1519 4.98887 14.1519 4.98887C14.1519 4.98887 16.6714 6.98541 16.6714 11.2188C16.6714 15.4522 12.3156 18.0001 12.3156 18.0001C12.3156 18.0001 10.2345 15.8984 9.72363 13.2342C9.21277 10.57 10.4794 7.61172 10.4794 7.61172C10.4794 7.61172 11.8618 7.13503 12.5137 6.66949ZM5.49357 6.66949C4.84174 6.20395 3.85539 4.98887 3.85539 4.98887C3.85539 4.98887 1.33594 6.98541 1.33594 11.2188C1.33594 15.4522 5.69168 18.0001 5.69168 18.0001C5.69168 18.0001 7.77277 15.8984 8.28366 13.2342C8.79452 10.57 7.52794 7.61172 7.52794 7.61172C7.52794 7.61172 6.14544 7.13503 5.49357 6.66949Z" fill="white"/>
</svg>
