<svg width="18" height="18" viewBox="0 0 18 18" fill="none" xmlns="http://www.w3.org/2000/svg">
<path fill-rule="evenodd" clip-rule="evenodd" d="M9.86848 8.96071C9.99047 8.88632 10.094 8.73043 10.1774 8.55718C11.2759 9.00613 12.0478 10.067 12.0478 11.3042C12.0478 12.9478 10.6855 14.2802 9.00504 14.2802C8.3152 14.2802 7.67897 14.0556 7.1686 13.6772C7.00119 13.5979 6.86345 13.5218 6.75073 13.4595C6.5759 13.3628 6.46126 13.2994 6.38947 13.3094C6.17962 13.3383 6.24054 13.5314 6.29592 13.7068C6.3335 13.8259 6.36855 13.9369 6.3143 13.9827C6.25756 14.0306 6.07376 13.8554 5.85899 13.6506C5.56663 13.3719 5.21689 13.0384 5.05198 13.1386C4.92158 13.2178 5.04818 13.4326 5.20315 13.6956L5.21464 13.7151C5.28011 13.8263 5.35597 13.9395 5.4252 14.0427C5.56593 14.2527 5.67927 14.4218 5.62256 14.4505C5.55401 14.4851 5.07637 14.1627 4.67387 13.7151C4.51851 13.5424 4.36804 13.3551 4.22819 13.1811V13.1811C3.92208 12.8002 3.66706 12.4829 3.5239 12.5205C3.35169 12.5657 3.48196 12.9209 3.67339 13.2628C3.76289 13.4226 3.86819 13.5854 3.95935 13.7263V13.7264C4.10113 13.9455 4.20875 14.1119 4.16972 14.1323C4.11706 14.1599 3.65366 13.708 3.33892 13.1386C3.15198 12.8003 2.995 12.4265 2.86792 12.1239C2.7301 11.7958 2.62744 11.5513 2.55984 11.5267C2.32498 11.4412 2.32498 11.9201 2.41918 12.6112C2.43146 12.7014 2.44976 12.796 2.47229 12.8923C3.38581 15.848 6.19203 18.0001 9.51217 18.0001C13.5733 18.0001 16.8655 14.7802 16.8655 10.8082C16.8655 7.02777 13.8832 3.92863 10.0941 3.63848C10.0989 3.46039 10.1918 3.10723 10.1918 3.10723C10.1918 3.10723 10.8608 1.48878 10.8961 1.14293C10.8985 1.11998 10.9012 1.09504 10.9042 1.06847C10.9459 0.694793 11.0234 0 10.4257 0C10.1065 0 9.95802 0.237469 9.78825 0.509062V0.509065C9.72307 0.613329 9.65473 0.722623 9.57239 0.825438C8.97937 1.56599 7.98219 2.49079 7.41677 2.98348C6.22167 4.02485 5.04913 4.8807 4.36526 5.37985L4.36523 5.37988C4.0542 5.60689 3.84428 5.76014 3.77931 5.82345C3.28972 6.30074 1.53428 9.46714 1.53428 9.46714C1.53428 9.46714 0.966596 10.483 1.16838 10.6891C1.37016 10.8951 1.85675 10.8479 1.85675 10.8479C1.85675 10.8479 8.39377 9.3482 8.97902 9.22994C9.13659 9.19808 9.24783 9.1797 9.33322 9.1656C9.56508 9.12732 9.6067 9.12042 9.86848 8.96071ZM5.24657 7.03354C4.89567 7.36707 4.31372 8.16319 4.31372 8.16319C4.31372 8.16319 5.39528 8.22981 5.99093 7.66361C6.58662 7.09738 6.45015 6.13244 6.45015 6.13244C6.45015 6.13244 5.59743 6.70001 5.24657 7.03354Z" fill="white"/>
</svg>
