<svg width="18" height="18" viewBox="0 0 18 18" fill="none" xmlns="http://www.w3.org/2000/svg">
<g clip-path="url(#clip0_21_638)">
<path fill-rule="evenodd" clip-rule="evenodd" d="M3.10198 1.49645C3.31982 0.636381 4.09899 0 5.02677 0C5.72269 0 6.33501 0.358058 6.68953 0.900005H7.27007C7.63074 0.529864 8.13464 0.300002 8.69225 0.300002C9.50978 0.300002 10.2119 0.794121 10.5163 1.50001H11.0023C11.3069 1.30988 11.6668 1.20001 12.0523 1.20001C12.8698 1.20001 13.5719 1.69413 13.8763 2.40001H15.198C15.2093 2.40001 15.2199 2.40305 15.229 2.40836C15.2894 2.40284 15.3505 2.40001 15.4123 2.40001C16.5088 2.40001 17.3977 3.28893 17.3977 4.38548V10.339L17.3978 10.3501L17.3977 10.3611V10.4468C17.3977 10.4832 17.3967 10.5193 17.3948 10.5553C17.2753 14.6854 13.5616 18.0001 8.99769 18.0001C4.35848 18.0001 0.597656 14.5751 0.597656 10.3501C0.597656 8.31067 1.47393 6.45764 2.90228 5.08626C2.89872 7.07446 2.9323 9.12992 3.08711 9.09466C3.50162 9.00015 3.17776 2.84203 3.10198 1.49645Z" fill="white"/>
</g>
<defs>
<clipPath id="clip0_21_638">
<rect width="18.0001" height="18.0001" fill="white"/>
</clipPath>
</defs>
</svg>
