<svg width="18" height="18" viewBox="0 0 18 18" fill="none" xmlns="http://www.w3.org/2000/svg">
<g clip-path="url(#clip0_21_630)">
<path fill-rule="evenodd" clip-rule="evenodd" d="M12.3841 13.9009C12.6065 13.0877 12.1748 11.4159 12.1748 11.4159C12.1748 11.4159 11.8617 12.7778 11.3725 13.2812C10.9551 13.7106 10.4438 14.0084 9.71041 14.0866C10.31 13.7954 10.7224 13.1881 10.7224 12.4862C10.7224 11.5009 9.90982 10.7022 8.90751 10.7022C7.9052 10.7022 7.09263 11.5009 7.09263 12.4862C7.09263 12.7553 7.15327 13.0105 7.2618 13.2393C6.63489 12.7399 6.53631 11.9392 6.53631 11.9392C6.53631 11.9392 5.83628 14.8455 7.76517 16.2127C9.69403 17.5799 13.4726 16.4047 13.4726 16.4047C13.4726 16.4047 8.06523 20.2095 4.05831 16.0685C0.60668 12.5013 3.15743 7.80508 3.15743 7.80508C3.15743 7.80508 3.04727 8.24074 3.04727 8.74646C3.04727 9.25219 3.32147 9.63698 3.32147 9.63698C3.32147 9.63698 4.13938 7.91294 4.77592 7.21181C5.37837 6.54827 6.13356 6.0101 6.78585 5.54526C7.28796 5.18744 7.7291 4.87307 7.99256 4.57842C9.44372 2.9558 8.55394 0.000244141 8.55394 0.000244141C8.55394 0.000244141 10.1898 1.44236 10.6465 3.30487C10.8205 4.01483 10.7085 4.82262 10.6084 5.54498C10.4458 6.71766 10.3145 7.66523 11.4889 7.60374C13.3867 7.50435 11.7375 4.57842 11.7375 4.57842C11.7375 4.57842 16.0425 6.84109 15.7209 10.7984C15.3993 14.7556 11.0153 15.6553 11.0153 15.6553C11.0153 15.6553 12.1617 14.7141 12.3841 13.9009Z" fill="white"/>
</g>
<defs>
<clipPath id="clip0_21_630">
<rect width="18.0001" height="18.0001" fill="white"/>
</clipPath>
</defs>
</svg>
