<svg width="18" height="18" viewBox="0 0 18 18" fill="none" xmlns="http://www.w3.org/2000/svg">
<g clip-path="url(#clip0_21_634)">
<path fill-rule="evenodd" clip-rule="evenodd" d="M3.42497 15.4919C3.36319 15.4338 3.30209 15.3745 3.2417 15.3141C0.0535493 12.126 0.0535498 6.957 3.2417 3.76887C6.42983 0.580715 16.5885 0.367432 16.5885 0.367432C16.5885 0.367432 17.9751 12.126 14.787 15.3141C11.9555 18.1456 7.56158 18.4624 4.38052 16.2645L6.94371 13.119L11.0412 12.2343L7.69644 11.9L9.82207 9.73566L12.2417 9.20561L10.3284 8.63899L12.2417 5.18747L9.52022 8.24003L8.46929 6.75703L8.83924 9.20561L6.94371 11.3425L6.06504 8.63895V12.2343L3.42497 15.4919Z" fill="white"/>
</g>
<defs>
<clipPath id="clip0_21_634">
<rect width="18.0001" height="18.0001" fill="white"/>
</clipPath>
</defs>
</svg>
