<svg width="18" height="18" viewBox="0 0 18 18" fill="none" xmlns="http://www.w3.org/2000/svg">
<path fill-rule="evenodd" clip-rule="evenodd" d="M14.842 12.1825C14.842 15.3951 12.2278 17.9995 9.00306 17.9995C5.77826 17.9995 3.16406 15.3951 3.16406 12.1825C3.16406 9.05791 8.68721 0.47654 8.99012 0.00825313C8.99704 -0.00242559 9.0091 -0.00242549 9.01599 0.00825323C9.3189 0.47654 14.842 9.05791 14.842 12.1825ZM8.02971 16.1346C5.06673 15.4863 5.57376 12.2041 5.57376 12.2041C5.57376 12.2041 6.38285 14.1854 8.3463 14.8273C10.3097 15.469 12.6825 14.5278 12.6825 14.5278C12.6825 14.5278 10.9927 16.7829 8.02971 16.1346Z" fill="white"/>
</svg>
